# xmcd
# 
# Track frame offsets:
#     150
#     26086
#     52444
#     73368
#     104140
#     126500
#     147398
#     203799
#     247274
# 
# Disc length: 3783
# 
# Revision: 2
# Processed by: cddbd v1.5.2PL0 Copyright (c) Steve Scherf et al.
# Submitted via: fre:ac v1.0.31
# 
DISCID=a30ec509
DTITLE=Joe Bonamassa - Beacon Theatre: Live From New York Disc 2
DYEAR=2012
DGENRE=Blues
TTITLE0=Bird On a Wire
TTITLE1=Down Around My Place
TTITLE2=I Know a Place
TTITLE3=Blue And Evil
TTITLE4=Walk in My Shadows
TTITLE5=Fire and Water
TTITLE6=Mountain Time
TTITLE7=Young Man Blues
TTITLE8=If Heartaches Were Nickels
EXTD=
EXTT0=
EXTT1=
EXTT2=
EXTT3=
EXTT4=
EXTT5=
EXTT6=
EXTT7=
EXTT8=
PLAYORDER=
